<svg id="logo_24gossip" data-name="logo 24gossip" xmlns="http://www.w3.org/2000/svg" width="73" height="37.11" viewBox="0 0 73 37.11">
  <path id="Path_80" data-name="Path 80" d="M58.8,328.11c.318-2.934.064-5.88.229-8.776a2.149,2.149,0,0,0-1.5-.229H15.073c-2.515,0-3.073-.559-3.073-3.061V293.832c0-2.184.635-2.832,2.781-2.832h67.45c2.134,0,2.769.61,2.769,2.705v22.8c0,1.88-.686,2.591-2.553,2.591-4.559.013-9.131.025-13.7-.013a2.109,2.109,0,0,0-1.765.787c-2.54,2.769-5.118,5.5-7.7,8.242Zm1.422-2.769c2.223-2.362,4.242-4.458,6.2-6.6a2.419,2.419,0,0,1,1.994-.851c4.61.038,9.22.025,13.83.025,1.473-.013,1.575-.1,1.575-1.613V293.858c0-1.626-.063-1.689-1.727-1.689H15.01c-1.778,0-1.8.025-1.8,1.867v21.958c0,1.918,0,1.918,1.867,1.918H58.749a2.283,2.283,0,0,1,1.473.2Z" transform="translate(-12 -291)" fill="#e82589"/>
  <path id="Path_81" data-name="Path 81" d="M81.47,353.354l-4.051.343c-2.108.178-2.489-.089-2.934-2.121a15.074,15.074,0,0,1-2.705.572c-1.842.241-2.172.787-1.8,2.9l5.359-.406c.279-.025.559-.076.838-.089a1.071,1.071,0,0,1,1.232,1.054,1.041,1.041,0,0,1-1.054,1.219c-2.413.216-4.839.394-7.252.584-.914.076-1.346-.381-1.41-1.257s-.14-1.372-.178-2.057a3.66,3.66,0,0,1,2.756-3.924,11.927,11.927,0,0,1,1.905-.318c2.172-.254,3.035-1.918,2.032-3.874a1.443,1.443,0,0,0-1.1-.864,17.861,17.861,0,0,0-3.493.2c-.406.038-.432.394-.521.724a1.075,1.075,0,0,1-1.257.876,1.181,1.181,0,0,1-.94-1.346,2.644,2.644,0,0,1,2.388-2.477,21.219,21.219,0,0,1,2.54-.241c2.972-.127,4.394,1.029,4.94,3.962.063.3.089.622.165,1.156,1.27-1.74,2.413-3.34,3.569-4.928.406-.546.775-1.219,1.638-.927s.775.94.826,1.6c.152,2.057.356,4.1.47,6.16.051.953.419,1.219,1.3.876a18.056,18.056,0,0,1,.394-1.9,3.934,3.934,0,0,1,3.988-2.731,3.4,3.4,0,0,1,3.264,2.921,29.756,29.756,0,0,1,.559,7.353,2.936,2.936,0,0,1-1.854,2.9,5.282,5.282,0,0,1-4.432-.2c-.572-.343-1.016-.889-.546-1.626s.952-.648,1.562-.279a2.426,2.426,0,0,0,1.511.368c1.5-.127,1.715-.394,1.638-2.134-2.616,1.067-4.432.114-5.652-2.324a3.157,3.157,0,0,0-1.4.165c.051.673.114,1.27.127,1.867a1.086,1.086,0,0,1-1.029,1.13,1.028,1.028,0,0,1-1.168-.965C81.585,354.636,81.547,354.09,81.47,353.354Zm5.512-2.705a4.341,4.341,0,0,0,.343,1.994,1.668,1.668,0,0,0,1.981,1.016,1.6,1.6,0,0,0,1.346-1.854c-.076-.686-.1-1.372-.229-2.045a1.69,1.69,0,0,0-3.366.038A5.815,5.815,0,0,0,86.982,350.649Zm-6.045-4.394-3.874,5.3c1.638-.343,2.934-.127,4.242-.546C81.191,349.518,81.077,348.071,80.937,346.254Z" transform="translate(-59.918 -335.561)" fill="#e82589"/>
  <path id="Path_82" data-name="Path 82" d="M347.269,366.267c-1.321,2.35-4.6,3.213-6.617,1.727-.6-.432-1.207-.965-.572-1.791a.983.983,0,0,1,1.575-.14,2.753,2.753,0,0,0,2.654.279c.457-.114.851-.394.762-.927s-.508-.6-.927-.6c-.61,0-1.219.051-1.816.013a2.887,2.887,0,0,1-.6-5.715,4.366,4.366,0,0,1,3.835.47c.6.444,1,1.041.457,1.753s-1.092.559-1.651,0a1.587,1.587,0,0,0-1.219-.444c-.775.051-1.6.229-1.549,1.143s.914.7,1.537.648c2.515-.2,3.683.66,4.216,3.239.648-.864,1.308-1.029,2.184-.317s1.7.33,2.565.063a.775.775,0,0,0,.572-.826c-.038-.483-.406-.584-.775-.6-.572-.025-1.13.025-1.7.013a2.934,2.934,0,1,1-.406-5.855,4.187,4.187,0,0,1,3.467.622c.559.419.889,1.016.406,1.664s-1.08.6-1.651.051a2.1,2.1,0,0,0-2.057-.3c-.7.178-.826.533-.737,1.1s.521.546.94.546c.648.013,1.3-.038,1.93,0a2.972,2.972,0,0,1,2.705,2.388,2.723,2.723,0,0,1-1.664,3.035C350.8,368.642,348.641,368.185,347.269,366.267Z" transform="translate(-297.841 -349.744)" fill="#e82589"/>
  <path id="Path_83" data-name="Path 83" d="M493.854,361.209c.089,1.029.165,1.943.241,2.857.051.7-.178,1.232-.927,1.308s-1.1-.419-1.156-1.118c-.229-2.883-.546-5.779-.622-8.674a3.522,3.522,0,0,1,3.1-3.861,3.981,3.981,0,0,1,4.394,2.985,8.408,8.408,0,0,1,.3,1.778C499.353,359.875,497.321,361.717,493.854,361.209Zm-.368-4.75h.025c.013.318.038.648.038.965a1.6,1.6,0,0,0,1.715,1.778c1.067.051,1.562-.66,1.715-1.638a5.156,5.156,0,0,0-.152-2.286,1.806,1.806,0,0,0-2.083-1.448c-1.118.165-1.257,1-1.3,1.9C493.448,355.976,493.473,356.217,493.486,356.459Z" transform="translate(-430.506 -343.987)" fill="#e82589"/>
  <path id="Path_84" data-name="Path 84" d="M273.679,373.695c-.051-2.184.533-3.734,2.324-4.61a3.686,3.686,0,0,1,4.636.9,6.1,6.1,0,0,1,.584,6.591,3.928,3.928,0,0,1-3.721,1.816,3.458,3.458,0,0,1-3.175-2.083A6.02,6.02,0,0,1,273.679,373.695Zm6.109.013c-.038-.3-.038-.724-.114-1.1a1.941,1.941,0,0,0-3.874.254,5.589,5.589,0,0,0,.229,2.146,1.731,1.731,0,0,0,2.045,1.27C279.077,376.158,279.8,375.358,279.788,373.707Z" transform="translate(-240.443 -358.772)" fill="#e82589"/>
  <path id="Path_85" data-name="Path 85" d="M466.672,363.865c.038.711-.292,1.245-.978,1.3s-1.118-.5-1.181-1.232q-.241-3.429-.533-6.858c-.051-.724-.051-1.448.864-1.562s1.181.521,1.245,1.27Z" transform="translate(-406.562 -347.304)" fill="#e82589"/>
  <path id="Path_86" data-name="Path 86" d="M462.392,326.337c-.7-.114-1.092-.47-1.092-1.13A1.073,1.073,0,0,1,462.367,324c.711,0,1.054.546,1.041,1.232A1.064,1.064,0,0,1,462.392,326.337Z" transform="translate(-404.239 -319.809)" fill="#e82589"/>
</svg>
